<?xml version="1.0" standalone="no"?>
<!DOCTYPE svg PUBLIC "-//W3C//DTD SVG 20010904//EN"
 "http://www.w3.org/TR/2001/REC-SVG-20010904/DTD/svg10.dtd">
<svg version="1.0" xmlns="http://www.w3.org/2000/svg"
 width="2880.000000pt" height="2880.000000pt" viewBox="0 0 2880.000000 2880.000000"
 preserveAspectRatio="xMidYMid meet">
<metadata>
Created by potrace 1.14, written by Peter Selinger 2001-2017
</metadata>
<g transform="translate(0.000000,2880.000000) scale(0.100000,-0.100000)"
fill="#000000" stroke="none">
<path d="M11318 27675 c-2 -2 -46 -5 -98 -9 -87 -5 -289 -29 -350 -41 -14 -3
-52 -10 -85 -16 -164 -29 -449 -112 -630 -184 -344 -136 -715 -351 -971 -564
-17 -14 -40 -33 -50 -42 -460 -377 -839 -899 -1064 -1464 -55 -139 -135 -388
-155 -485 -2 -8 -8 -35 -14 -60 -5 -25 -13 -61 -16 -80 -3 -19 -8 -42 -10 -50
-11 -37 -36 -245 -42 -350 -13 -204 -7 -512 11 -630 2 -14 7 -47 10 -75 83
-668 371 -1422 869 -2275 331 -567 706 -1114 1423 -2075 136 -183 388 -526
478 -650 170 -234 223 -311 220 -314 -9 -10 -277 121 -429 209 -49 29 -103 60
-120 70 -59 34 -302 195 -420 279 -105 74 -511 377 -525 391 -8 8 -62 52 -100
80 -29 22 -251 195 -481 375 -290 226 -616 460 -856 613 -76 49 -145 92 -153
96 -8 4 -24 12 -35 19 -128 78 -238 138 -410 221 -144 70 -417 185 -480 201
-39 11 -26 7 -140 43 -93 29 -284 74 -365 86 -19 3 -46 8 -60 11 -151 30 -479
45 -675 30 -154 -11 -191 -16 -310 -36 -66 -11 -133 -23 -150 -25 -40 -7 -231
-57 -330 -88 -219 -66 -500 -181 -693 -281 -328 -172 -534 -309 -809 -537
-193 -161 -334 -303 -527 -529 -77 -90 -316 -426 -316 -443 0 -2 -23 -43 -51
-92 -64 -111 -148 -278 -184 -364 -15 -36 -33 -78 -40 -95 -63 -143 -158 -468
-191 -655 -2 -14 -7 -36 -9 -50 -10 -51 -13 -66 -19 -121 -4 -31 -9 -66 -11
-78 -26 -137 -26 -669 0 -823 2 -13 6 -45 10 -73 3 -27 10 -77 16 -110 19
-110 26 -144 45 -213 9 -32 20 -75 25 -96 27 -111 87 -295 147 -452 73 -193
220 -476 348 -672 66 -100 156 -226 174 -242 3 -3 21 -25 40 -50 124 -162 365
-404 551 -553 365 -294 776 -520 1179 -648 l130 -41 -99 -102 c-202 -206 -313
-343 -472 -582 -283 -427 -479 -927 -563 -1437 -25 -150 -29 -183 -43 -362
-12 -163 -6 -510 12 -645 3 -19 8 -57 11 -85 3 -27 8 -59 10 -70 2 -10 6 -37
10 -60 28 -195 121 -526 215 -765 100 -256 307 -638 437 -805 4 -5 37 -48 72
-95 112 -146 186 -229 339 -380 469 -464 1055 -797 1688 -960 135 -35 133 -35
303 -65 242 -42 335 -49 615 -49 238 -1 375 7 515 29 19 3 53 8 75 10 22 3 63
10 90 15 28 5 61 12 75 14 14 2 61 13 105 24 465 114 936 358 1494 775 110 82
402 316 421 336 3 4 47 42 99 86 52 44 104 89 116 100 11 11 77 72 145 135
255 236 675 656 866 865 15 17 70 77 123 134 53 57 101 109 106 115 6 6 62 70
125 141 63 72 117 132 120 135 3 3 30 34 60 70 30 36 57 67 60 70 10 9 343
404 380 450 19 24 42 51 50 60 17 18 460 570 540 675 30 39 146 189 257 335
112 146 206 270 211 275 4 6 68 91 141 190 74 99 138 184 143 190 7 8 4 -126
-7 -260 -2 -27 -7 -115 -10 -195 -4 -80 -8 -179 -10 -220 -24 -465 -24 -1428
0 -1925 10 -203 16 -314 20 -360 2 -27 7 -93 10 -145 3 -52 8 -113 10 -135 2
-22 7 -78 10 -125 3 -47 8 -98 10 -115 2 -16 6 -62 10 -101 3 -39 7 -88 10
-110 2 -21 7 -64 10 -94 3 -30 7 -68 10 -85 2 -16 7 -55 10 -85 6 -60 33 -280
40 -320 2 -14 7 -47 10 -75 3 -27 11 -77 17 -110 11 -68 13 -77 23 -160 4 -33
9 -63 11 -66 1 -3 6 -28 9 -55 4 -27 8 -56 10 -64 3 -8 7 -33 10 -55 3 -22 10
-60 15 -85 5 -25 21 -106 35 -180 14 -74 27 -146 30 -160 3 -14 8 -38 10 -55
3 -16 8 -37 10 -45 2 -8 6 -26 9 -40 3 -14 12 -56 21 -95 8 -38 17 -82 20 -96
9 -47 134 -543 168 -669 99 -352 223 -740 327 -1020 18 -47 35 -96 40 -110 12
-40 186 -472 214 -534 14 -31 26 -58 26 -60 0 -20 313 -674 387 -811 280 -513
364 -655 604 -1020 158 -240 206 -308 410 -580 155 -207 216 -284 366 -461 23
-28 62 -60 87 -73 153 -76 424 10 733 231 350 251 656 609 750 879 30 87 37
188 16 249 -13 40 -74 121 -143 190 -14 14 -66 72 -115 130 -83 97 -122 146
-290 359 -52 65 -234 313 -288 391 -58 85 -173 257 -177 265 -3 6 -23 37 -44
70 -93 143 -252 412 -336 570 -24 44 -47 85 -51 90 -4 6 -59 114 -122 240
-183 367 -375 815 -505 1175 -46 130 -174 512 -197 590 -7 25 -21 70 -30 100
-9 30 -21 71 -25 90 -5 19 -16 58 -24 85 -26 90 -109 406 -121 462 -2 10 -15
65 -28 123 -29 119 -78 345 -83 375 -1 11 -14 76 -28 145 -13 69 -27 139 -30
155 -3 17 -10 57 -16 90 -6 33 -13 74 -15 90 -3 17 -7 41 -10 55 -2 13 -7 42
-10 65 -8 51 -11 70 -29 185 -15 94 -21 139 -31 215 -7 50 -15 112 -20 145 -2
14 -6 46 -9 72 -3 26 -8 62 -11 80 -9 65 -39 349 -50 473 -3 39 -8 81 -10 95
-2 14 -6 70 -10 125 -3 55 -8 114 -10 130 -2 17 -7 71 -10 120 -3 50 -8 113
-10 140 -3 47 -12 176 -20 296 -2 30 -6 101 -10 159 -3 58 -7 132 -10 165 -2
33 -7 128 -10 210 -4 83 -8 184 -10 225 -14 286 -24 880 -15 880 3 0 70 -100
150 -222 239 -366 792 -1193 1005 -1503 216 -315 212 -310 371 -533 60 -85
116 -163 124 -175 64 -94 514 -706 552 -752 5 -5 34 -44 65 -85 54 -71 289
-371 324 -415 10 -11 72 -87 140 -170 134 -164 283 -338 418 -489 238 -266
564 -594 771 -776 47 -41 87 -77 90 -80 42 -44 332 -265 455 -347 193 -130
274 -175 478 -267 98 -45 284 -105 407 -131 8 -2 58 -13 110 -24 52 -11 112
-23 134 -27 21 -3 46 -7 55 -9 58 -10 151 -22 241 -30 41 -4 93 -8 115 -10 51
-5 420 -5 460 -1 17 2 66 7 110 11 84 7 131 12 174 20 14 2 51 7 81 10 30 4
58 9 61 11 4 2 24 6 45 10 97 15 303 69 459 120 397 131 758 320 1088 568 130
98 156 120 271 226 473 438 805 946 1016 1555 66 191 144 531 165 720 3 28 7
66 10 85 36 295 24 684 -31 1005 -35 206 -65 338 -98 433 -8 23 -15 45 -15 47
1 13 -68 211 -108 310 -53 131 -158 347 -226 465 -45 77 -214 338 -227 350 -3
3 -37 46 -75 95 -38 50 -84 106 -102 125 -113 124 -131 146 -125 151 4 3 45
16 92 28 92 25 293 87 325 101 11 5 74 30 140 57 673 270 1303 787 1697 1393
111 170 133 208 214 368 119 234 249 577 278 737 3 17 17 77 31 135 13 58 27
119 29 135 3 17 10 53 15 80 5 28 12 75 16 105 3 30 8 62 10 70 19 70 27 582
12 754 -9 108 -26 236 -41 311 -2 11 -7 40 -11 65 -15 101 -87 374 -135 514
-265 777 -756 1426 -1420 1877 -87 59 -156 102 -280 173 -42 24 -251 127 -295
146 -11 4 -40 17 -65 28 -77 34 -305 111 -445 151 -54 15 -162 39 -210 46 -22
4 -51 8 -65 11 -46 7 -108 15 -187 24 -80 8 -508 6 -553 -3 -14 -3 -52 -8 -85
-12 -33 -3 -71 -8 -85 -10 -14 -2 -42 -7 -62 -10 -21 -3 -55 -8 -75 -11 -80
-11 -361 -77 -477 -110 -213 -62 -602 -201 -753 -269 -56 -25 -94 -42 -233
-103 -155 -68 -542 -258 -805 -395 -197 -102 -293 -153 -600 -319 -66 -36
-151 -82 -190 -103 -38 -20 -92 -50 -120 -65 -27 -15 -99 -53 -160 -85 -60
-32 -137 -72 -170 -90 -70 -38 -248 -128 -255 -130 -3 -1 -88 -42 -190 -92
-166 -82 -277 -131 -552 -247 -47 -20 -91 -36 -96 -36 -5 0 -31 -9 -57 -21
-25 -11 -48 -19 -50 -17 -3 3 241 324 285 375 10 12 64 77 118 145 55 68 124
152 154 188 82 102 595 719 643 775 45 53 268 326 313 384 15 19 48 59 73 90
253 308 638 830 845 1142 296 450 567 941 708 1284 21 50 41 99 46 110 5 11
19 45 30 75 12 30 26 64 31 75 23 55 105 303 148 450 25 85 78 306 85 357 3
21 12 75 20 121 8 46 18 110 21 141 4 31 8 67 11 79 6 31 17 257 17 357 0 87
-12 336 -17 368 -2 9 -7 44 -11 77 -4 32 -8 67 -10 76 -2 9 -6 34 -9 55 -44
281 -155 632 -288 914 -129 272 -339 597 -524 810 -68 77 -338 346 -403 400
-395 329 -797 552 -1256 700 -128 41 -371 103 -450 115 -22 3 -47 7 -55 10
-15 4 -35 7 -130 20 -158 21 -290 29 -500 29 -168 0 -336 -7 -400 -18 -14 -3
-47 -7 -75 -10 -616 -70 -1272 -338 -1785 -730 -58 -44 -110 -85 -116 -91 -6
-5 -53 -47 -105 -92 -174 -151 -406 -406 -533 -583 -68 -95 -176 -258 -176
-265 0 -3 -10 -21 -23 -40 l-24 -35 -23 43 c-44 78 -186 292 -255 382 -563
739 -1360 1237 -2265 1414 -58 11 -118 23 -135 25 -72 11 -114 16 -175 21 -36
4 -83 9 -105 11 -43 6 -452 13 -457 9z"/>
</g>
</svg>
